<svg xmlns="http://www.w3.org/2000/svg" xmlns:xlink="http://www.w3.org/1999/xlink" version="1.1" data-diagram-type="CLASS" style="width:1934px;height:1034px;background:#FFFFFF;" width="1934px" height="1034px" viewBox="0 0 1934 1034" zoomAndPan="magnify" preserveAspectRatio="none" contentStyleType="text/css"><?plantuml 1.2026.8?><defs/><g font-family="sans-serif" lengthAdjust="spacing"><g class="title" data-source-line="1"><text x="764.755" y="24.533" fill="#000" font-size="14" textLength="397.489" font-weight="700">Quality and Yield Control Bounded Context - Class Diagram</text></g><!--cluster Production-Quality Shared Kernel--><g class="cluster" data-qualified-name="Production-Quality Shared Kernel" id="ent0001" data-source-line="9"><rect x="992.5" y="838.609" width="541" height="182" fill="#FFF2CC" style="stroke:#000;stroke-width:1.5;" rx="2.5" ry="2.5"/><text x="1150.593" y="855.143" fill="#000" font-size="14" textLength="224.813" font-weight="700">Production-Quality Shared Kernel</text></g><!--cluster Quality and Yield Control Bounded Context--><g class="cluster" data-qualified-name="Quality and Yield Control Bounded Context" id="ent0004" data-source-line="23"><rect x="7" y="45.609" width="1913" height="769" fill="#EAF3F8" style="stroke:#000;stroke-width:1.5;" rx="2.5" ry="2.5"/><text x="819.61" y="62.143" fill="#000" font-size="14" textLength="287.779" font-weight="700">Quality and Yield Control Bounded Context</text></g><!--class Weight--><g class="entity" data-qualified-name="Production-Quality Shared Kernel.Weight" id="ent0002" data-source-line="10"><rect x="1008.5" y="875.109" width="161.393" height="129.141" fill="#F1F1F1" style="stroke:#181818;stroke-width:0.5;" rx="2.5" ry="2.5"/><text x="1048.169" y="892.566" fill="#000" font-size="12" textLength="82.055" font-style="italic">«Value Object»</text><text x="1067.41" y="909.736" fill="#000" font-size="14" textLength="43.572">Weight</text><line x1="1009.5" y1="917.813" x2="1168.893" y2="917.813" style="stroke:#181818;stroke-width:0.5;"/><text x="1014.5" y="936.346" fill="#000" font-size="14" textLength="98.041">-value : decimal</text><text x="1014.5" y="953.955" fill="#000" font-size="14" textLength="149.393">-unit : MeasurementUnit</text><line x1="1009.5" y1="961.031" x2="1168.893" y2="961.031" style="stroke:#181818;stroke-width:0.5;"/><text x="1014.5" y="979.564" fill="#000" font-size="14" textLength="114.769">+isPositive() : bool</text><text x="1014.5" y="997.174" fill="#000" font-size="14" textLength="146.686">+isNonNegative() : bool</text></g><!--class MeasurementUnit--><g class="entity" data-qualified-name="Production-Quality Shared Kernel.MeasurementUnit" id="ent0003" data-source-line="17"><rect x="1401.5" y="892.609" width="116.489" height="93.922" fill="#F1F1F1" style="stroke:#181818;stroke-width:0.5;" rx="2.5" ry="2.5"/><text x="1419.051" y="910.066" fill="#000" font-size="12" textLength="81.387" font-style="italic">«Enumeration»</text><text x="1404.5" y="927.236" fill="#000" font-size="14" textLength="110.489">MeasurementUnit</text><line x1="1402.5" y1="935.313" x2="1516.989" y2="935.313" style="stroke:#181818;stroke-width:0.5;"/><text x="1407.5" y="953.846" fill="#000" font-size="14" textLength="73.903">KILOGRAM</text><text x="1407.5" y="971.455" fill="#000" font-size="14" textLength="91">METRIC_TON</text><line x1="1402.5" y1="978.531" x2="1516.989" y2="978.531" style="stroke:#181818;stroke-width:0.5;"/></g><!--class QualityAssessment--><g class="entity" data-qualified-name="Quality and Yield Control Bounded Context.QualityAssessment" id="ent0005" data-source-line="24"><rect x="456" y="175.609" width="381.202" height="164.359" fill="#F1F1F1" style="stroke:#181818;stroke-width:0.5;" rx="2.5" ry="2.5"/><text x="597.898" y="193.066" fill="#000" font-size="12" textLength="97.406" font-style="italic">«Aggregate Root»</text><text x="586.691" y="210.236" fill="#000" font-size="14" textLength="119.82">QualityAssessment</text><line x1="457" y1="218.313" x2="836.202" y2="218.313" style="stroke:#181818;stroke-width:0.5;"/><text x="462" y="236.846" fill="#000" font-size="14" textLength="158.724">-id : QualityAssessmentId</text><text x="462" y="254.455" fill="#000" font-size="14" textLength="262.254">-productionRecordId : ProductionRecordId</text><text x="462" y="272.064" fill="#000" font-size="14" textLength="276.227">-measurements : List&lt;QualityMeasurement></text><text x="462" y="289.674" fill="#000" font-size="14" textLength="186.73">-assessedAt : DateTimeOffset</text><line x1="457" y1="296.75" x2="836.202" y2="296.75" style="stroke:#181818;stroke-width:1;"/><text x="462" y="315.283" fill="#000" font-size="14" textLength="369.202">+recordMeasurement(measurement : QualityMeasurement)</text><text x="462" y="332.893" fill="#000" font-size="14" textLength="187.947">+hasValidPercentages() : bool</text></g><!--class WasteRecord--><g class="entity" data-qualified-name="Quality and Yield Control Bounded Context.WasteRecord" id="ent0006" data-source-line="34"><rect x="508.5" y="399.609" width="276.188" height="199.578" fill="#F1F1F1" style="stroke:#181818;stroke-width:0.5;" rx="2.5" ry="2.5"/><text x="597.891" y="417.066" fill="#000" font-size="12" textLength="97.406" font-style="italic">«Aggregate Root»</text><text x="604.191" y="434.236" fill="#000" font-size="14" textLength="84.807">WasteRecord</text><line x1="509.5" y1="442.313" x2="783.688" y2="442.313" style="stroke:#181818;stroke-width:0.5;"/><text x="514.5" y="460.846" fill="#000" font-size="14" textLength="123.71">-id : WasteRecordId</text><text x="514.5" y="478.455" fill="#000" font-size="14" textLength="262.254">-productionRecordId : ProductionRecordId</text><text x="514.5" y="496.064" fill="#000" font-size="14" textLength="108.938">-quantity : Weight</text><text x="514.5" y="513.674" fill="#000" font-size="14" textLength="141.62">-baseWeight : Weight?</text><text x="514.5" y="531.283" fill="#000" font-size="14" textLength="165.778">-percentage : Percentage?</text><text x="514.5" y="548.893" fill="#000" font-size="14" textLength="182.841">-recordedAt : DateTimeOffset</text><line x1="509.5" y1="555.969" x2="783.688" y2="555.969" style="stroke:#181818;stroke-width:1;"/><text x="514.5" y="574.502" fill="#000" font-size="14" textLength="264.188">+record(quantity, baseWeight, recordedAt)</text><text x="514.5" y="592.111" fill="#000" font-size="14" textLength="235.423">+calculatePercentage() : Percentage?</text></g><!--class QualityDeviation--><g class="entity" data-qualified-name="Quality and Yield Control Bounded Context.QualityDeviation" id="ent0007" data-source-line="46"><rect x="897" y="616.609" width="383.608" height="181.969" fill="#F1F1F1" style="stroke:#181818;stroke-width:0.5;" rx="2.5" ry="2.5"/><text x="1040.101" y="634.066" fill="#000" font-size="12" textLength="97.406" font-style="italic">«Aggregate Root»</text><text x="1037.835" y="651.236" fill="#000" font-size="14" textLength="101.938">QualityDeviation</text><line x1="898" y1="659.313" x2="1279.608" y2="659.313" style="stroke:#181818;stroke-width:0.5;"/><text x="903" y="677.846" fill="#000" font-size="14" textLength="140.841">-id : QualityDeviationId</text><text x="903" y="695.455" fill="#000" font-size="14" textLength="161.075">-source : DeviationSource</text><text x="903" y="713.064" fill="#000" font-size="14" textLength="166.517">-indicator : QualityIndicator</text><text x="903" y="730.674" fill="#000" font-size="14" textLength="181.337">-observedValue : Percentage</text><text x="903" y="748.283" fill="#000" font-size="14" textLength="199.233">-expectedRange : QualityRange</text><text x="903" y="765.893" fill="#000" font-size="14" textLength="181.296">-detectedAt : DateTimeOffset</text><line x1="898" y1="772.969" x2="1279.608" y2="772.969" style="stroke:#181818;stroke-width:1;"/><text x="903" y="791.502" fill="#000" font-size="14" textLength="371.608">+identify(source, indicator, observedValue, expectedRange)</text></g><!--class QualityAssessmentId--><g class="entity" data-qualified-name="Quality and Yield Control Bounded Context.QualityAssessmentId" id="ent0008" data-source-line="57"><rect x="1020.5" y="81.609" width="137.496" height="76.313" fill="#F1F1F1" style="stroke:#181818;stroke-width:0.5;" rx="2.5" ry="2.5"/><text x="1048.221" y="99.066" fill="#000" font-size="12" textLength="82.055" font-style="italic">«Value Object»</text><text x="1023.5" y="116.236" fill="#000" font-size="14" textLength="131.496">QualityAssessmentId</text><line x1="1021.5" y1="124.313" x2="1156.996" y2="124.313" style="stroke:#181818;stroke-width:0.5;"/><text x="1026.5" y="142.846" fill="#000" font-size="14" textLength="79.372">-value : Guid</text><line x1="1021.5" y1="149.922" x2="1156.996" y2="149.922" style="stroke:#181818;stroke-width:0.5;"/></g><!--class WasteRecordId--><g class="entity" data-qualified-name="Quality and Yield Control Bounded Context.WasteRecordId" id="ent0009" data-source-line="60"><rect x="1038" y="505.609" width="102.482" height="76.313" fill="#F1F1F1" style="stroke:#181818;stroke-width:0.5;" rx="2.5" ry="2.5"/><text x="1048.214" y="523.066" fill="#000" font-size="12" textLength="82.055" font-style="italic">«Value Object»</text><text x="1041" y="540.236" fill="#000" font-size="14" textLength="96.482">WasteRecordId</text><line x1="1039" y1="548.313" x2="1139.482" y2="548.313" style="stroke:#181818;stroke-width:0.5;"/><text x="1044" y="566.846" fill="#000" font-size="14" textLength="79.372">-value : Guid</text><line x1="1039" y1="573.922" x2="1139.482" y2="573.922" style="stroke:#181818;stroke-width:0.5;"/></g><!--class QualityDeviationId--><g class="entity" data-qualified-name="Quality and Yield Control Bounded Context.QualityDeviationId" id="ent0010" data-source-line="63"><rect x="1399.5" y="695.609" width="119.613" height="76.313" fill="#F1F1F1" style="stroke:#181818;stroke-width:0.5;" rx="2.5" ry="2.5"/><text x="1418.279" y="713.066" fill="#000" font-size="12" textLength="82.055" font-style="italic">«Value Object»</text><text x="1402.5" y="730.236" fill="#000" font-size="14" textLength="113.613">QualityDeviationId</text><line x1="1400.5" y1="738.313" x2="1518.113" y2="738.313" style="stroke:#181818;stroke-width:0.5;"/><text x="1405.5" y="756.846" fill="#000" font-size="14" textLength="79.372">-value : Guid</text><line x1="1400.5" y1="763.922" x2="1518.113" y2="763.922" style="stroke:#181818;stroke-width:0.5;"/></g><!--class ProductionRecordId--><g class="entity" data-qualified-name="Quality and Yield Control Bounded Context.ProductionRecordId" id="ent0011" data-source-line="66"><rect x="1024" y="357.609" width="129.737" height="76.313" fill="#F1F1F1" style="stroke:#181818;stroke-width:0.5;" rx="2.5" ry="2.5"/><text x="1047.841" y="375.066" fill="#000" font-size="12" textLength="82.055" font-style="italic">«Value Object»</text><text x="1027" y="392.236" fill="#000" font-size="14" textLength="123.737">ProductionRecordId</text><line x1="1025" y1="400.313" x2="1152.737" y2="400.313" style="stroke:#181818;stroke-width:0.5;"/><text x="1030" y="418.846" fill="#000" font-size="14" textLength="79.372">-value : Guid</text><line x1="1025" y1="425.922" x2="1152.737" y2="425.922" style="stroke:#181818;stroke-width:0.5;"/></g><!--class QualityMeasurement--><g class="entity" data-qualified-name="Quality and Yield Control Bounded Context.QualityMeasurement" id="ent0012" data-source-line="70"><rect x="976" y="193.109" width="225.623" height="129.141" fill="#F1F1F1" style="stroke:#181818;stroke-width:0.5;" rx="2.5" ry="2.5"/><text x="1047.784" y="210.566" fill="#000" font-size="12" textLength="82.055" font-style="italic">«Value Object»</text><text x="1024.229" y="227.736" fill="#000" font-size="14" textLength="129.165">QualityMeasurement</text><line x1="977" y1="235.813" x2="1200.623" y2="235.813" style="stroke:#181818;stroke-width:0.5;"/><text x="982" y="254.346" fill="#000" font-size="14" textLength="166.517">-indicator : QualityIndicator</text><text x="982" y="271.955" fill="#000" font-size="14" textLength="121.406">-value : Percentage</text><text x="982" y="289.564" fill="#000" font-size="14" textLength="199.233">-expectedRange : QualityRange</text><line x1="977" y1="296.641" x2="1200.623" y2="296.641" style="stroke:#181818;stroke-width:0.5;"/><text x="982" y="315.174" fill="#000" font-size="14" textLength="213.623">+isOutsideExpectedRange() : bool</text></g><!--class Percentage--><g class="entity" data-qualified-name="Quality and Yield Control Bounded Context.Percentage" id="ent0013" data-source-line="76"><rect x="1638" y="430.609" width="266.092" height="93.922" fill="#F1F1F1" style="stroke:#181818;stroke-width:0.5;" rx="2.5" ry="2.5"/><text x="1730.019" y="448.066" fill="#000" font-size="12" textLength="82.055" font-style="italic">«Value Object»</text><text x="1735.243" y="465.236" fill="#000" font-size="14" textLength="71.606">Percentage</text><line x1="1639" y1="473.313" x2="1903.092" y2="473.313" style="stroke:#181818;stroke-width:0.5;"/><text x="1644" y="491.846" fill="#000" font-size="14" textLength="98.041">-value : decimal</text><line x1="1639" y1="498.922" x2="1903.092" y2="498.922" style="stroke:#181818;stroke-width:0.5;"/><text x="1644" y="517.455" fill="#000" font-size="14" textLength="254.092">+isBetweenZeroAndOneHundred() : bool</text></g><!--class QualityRange--><g class="entity" data-qualified-name="Quality and Yield Control Bounded Context.QualityRange" id="ent0014" data-source-line="80"><rect x="1341" y="188.609" width="236.526" height="111.531" fill="#F1F1F1" style="stroke:#181818;stroke-width:0.5;" rx="2.5" ry="2.5"/><text x="1418.236" y="206.066" fill="#000" font-size="12" textLength="82.055" font-style="italic">«Value Object»</text><text x="1416.85" y="223.236" fill="#000" font-size="14" textLength="84.827">QualityRange</text><line x1="1342" y1="231.313" x2="1576.526" y2="231.313" style="stroke:#181818;stroke-width:0.5;"/><text x="1347" y="249.846" fill="#000" font-size="14" textLength="144.717">-minimum : Percentage</text><text x="1347" y="267.455" fill="#000" font-size="14" textLength="148.606">-maximum : Percentage</text><line x1="1342" y1="274.531" x2="1576.526" y2="274.531" style="stroke:#181818;stroke-width:0.5;"/><text x="1347" y="293.064" fill="#000" font-size="14" textLength="224.526">+contains(value : Percentage) : bool</text></g><!--class DeviationSource--><g class="entity" data-qualified-name="Quality and Yield Control Bounded Context.DeviationSource" id="ent0015" data-source-line="85"><rect x="1342" y="566.609" width="235.323" height="93.922" fill="#F1F1F1" style="stroke:#181818;stroke-width:0.5;" rx="2.5" ry="2.5"/><text x="1418.634" y="584.066" fill="#000" font-size="12" textLength="82.055" font-style="italic">«Value Object»</text><text x="1408.3" y="601.236" fill="#000" font-size="14" textLength="102.724">DeviationSource</text><line x1="1343" y1="609.313" x2="1576.323" y2="609.313" style="stroke:#181818;stroke-width:0.5;"/><text x="1348" y="627.846" fill="#000" font-size="14" textLength="99.6">-sourceId : Guid</text><text x="1348" y="645.455" fill="#000" font-size="14" textLength="223.323">-sourceType : DeviationSourceType</text><line x1="1343" y1="652.531" x2="1576.323" y2="652.531" style="stroke:#181818;stroke-width:0.5;"/></g><!--class QualityIndicator--><g class="entity" data-qualified-name="Quality and Yield Control Bounded Context.QualityIndicator" id="ent0016" data-source-line="89"><rect x="1346" y="335.609" width="227.496" height="111.531" fill="#F1F1F1" style="stroke:#181818;stroke-width:0.5;" rx="2.5" ry="2.5"/><text x="1419.055" y="353.066" fill="#000" font-size="12" textLength="81.387" font-style="italic">«Enumeration»</text><text x="1411.114" y="370.236" fill="#000" font-size="14" textLength="97.269">QualityIndicator</text><line x1="1347" y1="378.313" x2="1572.496" y2="378.313" style="stroke:#181818;stroke-width:0.5;"/><text x="1352" y="396.846" fill="#000" font-size="14" textLength="207.71">WHOLE_GRAIN_PERCENTAGE</text><text x="1352" y="414.455" fill="#000" font-size="14" textLength="215.496">BROKEN_GRAIN_PERCENTAGE</text><text x="1352" y="432.064" fill="#000" font-size="14" textLength="144.71">YIELD_PERCENTAGE</text><line x1="1347" y1="439.141" x2="1572.496" y2="439.141" style="stroke:#181818;stroke-width:0.5;"/></g><!--class DeviationSourceType--><g class="entity" data-qualified-name="Quality and Yield Control Bounded Context.DeviationSourceType" id="ent0017" data-source-line="94"><rect x="1683.5" y="566.609" width="175.379" height="93.922" fill="#F1F1F1" style="stroke:#181818;stroke-width:0.5;" rx="2.5" ry="2.5"/><text x="1730.496" y="584.066" fill="#000" font-size="12" textLength="81.387" font-style="italic">«Enumeration»</text><text x="1704.266" y="601.236" fill="#000" font-size="14" textLength="133.848">DeviationSourceType</text><line x1="1684.5" y1="609.313" x2="1857.879" y2="609.313" style="stroke:#181818;stroke-width:0.5;"/><text x="1689.5" y="627.846" fill="#000" font-size="14" textLength="163.379">QUALITY_ASSESSMENT</text><text x="1689.5" y="645.455" fill="#000" font-size="14" textLength="118.234">WASTE_RECORD</text><line x1="1684.5" y1="652.531" x2="1857.879" y2="652.531" style="stroke:#181818;stroke-width:0.5;"/></g><!--class QualityAssessmentRepository--><g class="entity" data-qualified-name="Quality and Yield Control Bounded Context.QualityAssessmentRepository" id="ent0018" data-source-line="99"><rect x="23" y="210.609" width="373.423" height="93.922" fill="#F1F1F1" style="stroke:#181818;stroke-width:0.5;" rx="2.5" ry="2.5"/><text x="174.359" y="228.066" fill="#000" font-size="12" textLength="70.705" font-style="italic">«Repository»</text><text x="116.343" y="245.236" fill="#000" font-size="14" textLength="186.737" font-style="italic">QualityAssessmentRepository</text><line x1="24" y1="253.313" x2="395.423" y2="253.313" style="stroke:#181818;stroke-width:0.5;"/><line x1="24" y1="261.313" x2="395.423" y2="261.313" style="stroke:#181818;stroke-width:0.5;"/><text x="29" y="279.846" fill="#000" font-size="14" textLength="253.258">+save(assessment : QualityAssessment)</text><text x="29" y="297.455" fill="#000" font-size="14" textLength="361.423">+findById(id : QualityAssessmentId) : QualityAssessment?</text></g><!--class WasteRecordRepository--><g class="entity" data-qualified-name="Quality and Yield Control Bounded Context.WasteRecordRepository" id="ent0019" data-source-line="103"><rect x="58" y="452.609" width="303.396" height="93.922" fill="#F1F1F1" style="stroke:#181818;stroke-width:0.5;" rx="2.5" ry="2.5"/><text x="174.345" y="470.066" fill="#000" font-size="12" textLength="70.705" font-style="italic">«Repository»</text><text x="133.836" y="487.236" fill="#000" font-size="14" textLength="151.724" font-style="italic">WasteRecordRepository</text><line x1="59" y1="495.313" x2="360.396" y2="495.313" style="stroke:#181818;stroke-width:0.5;"/><line x1="59" y1="503.313" x2="360.396" y2="503.313" style="stroke:#181818;stroke-width:0.5;"/><text x="64" y="521.846" fill="#000" font-size="14" textLength="183.23">+save(record : WasteRecord)</text><text x="64" y="539.455" fill="#000" font-size="14" textLength="291.396">+findById(id : WasteRecordId) : WasteRecord?</text></g><!--class QualityDeviationRepository--><g class="entity" data-qualified-name="Quality and Yield Control Bounded Context.QualityDeviationRepository" id="ent0020" data-source-line="107"><rect x="477.5" y="660.609" width="337.657" height="93.922" fill="#F1F1F1" style="stroke:#181818;stroke-width:0.5;" rx="2.5" ry="2.5"/><text x="610.976" y="678.066" fill="#000" font-size="12" textLength="70.705" font-style="italic">«Repository»</text><text x="561.901" y="695.236" fill="#000" font-size="14" textLength="168.854" font-style="italic">QualityDeviationRepository</text><line x1="478.5" y1="703.313" x2="814.157" y2="703.313" style="stroke:#181818;stroke-width:0.5;"/><line x1="478.5" y1="711.313" x2="814.157" y2="711.313" style="stroke:#181818;stroke-width:0.5;"/><text x="483.5" y="729.846" fill="#000" font-size="14" textLength="216.72">+save(deviation : QualityDeviation)</text><text x="483.5" y="747.455" fill="#000" font-size="14" textLength="325.657">+findById(id : QualityDeviationId) : QualityDeviation?</text></g><!--reverse link QualityAssessment to QualityAssessmentId--><g class="link" data-entity-1="ent0005" data-entity-2="ent0008" id="lnk21" data-source-line="113" data-link-type="composition"><path d="M849.05,182.109 C968.9,182.109 1089,182.109 1089,182.109 C1089,182.109 1089,170.779 1089,157.769" style="stroke:#181818;stroke-width:1;" fill="none" id="QualityAssessment-backto-QualityAssessmentId" codeLine="113"/><polygon points="837.05,182.109,843.05,186.109,849.05,182.109,843.05,178.109,837.05,182.109" fill="#181818" style="stroke:#181818;stroke-width:1;stroke-linejoin:miter;stroke-miterlimit:10;"/><text x="1081.353" y="179.49" fill="#000" font-size="13">1</text></g><!--reverse link QualityAssessment to ProductionRecordId--><g class="link" data-entity-1="ent0005" data-entity-2="ent0011" id="lnk22" data-source-line="114" data-link-type="composition"><path d="M830,351.659 C830,373.239 830,378.609 830,378.609 C830,378.609 947.26,378.609 1023.98,378.609" style="stroke:#181818;stroke-width:1;" fill="none" id="QualityAssessment-backto-ProductionRecordId" codeLine="114"/><polygon points="830,339.659,826,345.659,830,351.659,834,345.659,830,339.659" fill="#181818" style="stroke:#181818;stroke-width:1;stroke-linejoin:miter;stroke-miterlimit:10;"/><text x="821.51" y="393.104" fill="#000" font-size="13" textLength="85.268">local reference</text><text x="1008.659" y="391.01" fill="#000" font-size="13">1</text></g><!--reverse link QualityAssessment to QualityMeasurement--><g class="link" data-entity-1="ent0005" data-entity-2="ent0012" id="lnk23" data-source-line="115" data-link-type="composition"><path d="M849.05,257.609 C896.33,257.609 933.52,257.609 975.76,257.609" style="stroke:#181818;stroke-width:1;" fill="none" id="QualityAssessment-backto-QualityMeasurement" codeLine="115"/><polygon points="837.05,257.609,843.05,261.609,849.05,257.609,843.05,253.609,837.05,257.609" fill="#181818" style="stroke:#181818;stroke-width:1;stroke-linejoin:miter;stroke-miterlimit:10;"/><text x="948.543" y="271.649" fill="#000" font-size="13" textLength="19.513">1..*</text></g><!--reverse link QualityMeasurement to Percentage--><g class="link" data-entity-1="ent0012" data-entity-2="ent0013" id="lnk24" data-source-line="116" data-link-type="composition"><path d="M1170,334.119 C1170,395.629 1170,466.939 1170,466.939 C1170,466.939 1460.97,466.939 1637.99,466.939" style="stroke:#181818;stroke-width:1;" fill="none" id="QualityMeasurement-backto-Percentage" codeLine="116"/><polygon points="1170,322.119,1166,328.119,1170,334.119,1174,328.119,1170,322.119" fill="#181818" style="stroke:#181818;stroke-width:1;stroke-linejoin:miter;stroke-miterlimit:10;"/><text x="1622.676" y="480.285" fill="#000" font-size="13">1</text></g><!--reverse link QualityMeasurement to QualityRange--><g class="link" data-entity-1="ent0012" data-entity-2="ent0014" id="lnk25" data-source-line="117" data-link-type="composition"><path d="M1214.18,228.939 C1258.12,228.939 1296.48,228.939 1340.92,228.939" style="stroke:#181818;stroke-width:1;" fill="none" id="QualityMeasurement-backto-QualityRange" codeLine="117"/><polygon points="1202.18,228.939,1208.18,232.939,1214.18,228.939,1208.18,224.939,1202.18,228.939" fill="#181818" style="stroke:#181818;stroke-width:1;stroke-linejoin:miter;stroke-miterlimit:10;"/><text x="1325.741" y="241.947" fill="#000" font-size="13">1</text></g><!--link QualityMeasurement to QualityIndicator--><g class="link" data-entity-1="ent0012" data-entity-2="ent0016" id="lnk26" data-source-line="118" data-link-type="dependency"><path d="M1186,322.289 C1186,337.109 1186,348.609 1186,348.609 C1186,348.609 1265.74,348.609 1340.89,348.609" style="stroke:#181818;stroke-width:1;" fill="none" id="QualityMeasurement-to-QualityIndicator" codeLine="118"/><polygon points="1345.89,348.609,1336.89,344.609,1340.89,348.609,1336.89,352.609,1345.89,348.609" fill="#181818" style="stroke:#181818;stroke-width:1;stroke-linejoin:miter;stroke-miterlimit:10;"/><text x="1330.646" y="359.672" fill="#000" font-size="13">1</text></g><!--reverse link QualityRange to Percentage--><g class="link" data-entity-1="ent0014" data-entity-2="ent0013" id="lnk27" data-source-line="119" data-link-type="composition"><path d="M1590.15,244.609 C1678.18,244.609 1771,244.609 1771,244.609 C1771,244.609 1771,362.379 1771,430.459" style="stroke:#181818;stroke-width:1;" fill="none" id="QualityRange-backto-Percentage" codeLine="119"/><polygon points="1578.15,244.609,1584.15,248.609,1590.15,244.609,1584.15,240.609,1578.15,244.609" fill="#181818" style="stroke:#181818;stroke-width:1;stroke-linejoin:miter;stroke-miterlimit:10;"/><text x="1763.496" y="419.886" fill="#000" font-size="13">2</text></g><!--reverse link WasteRecord to WasteRecordId--><g class="link" data-entity-1="ent0006" data-entity-2="ent0009" id="lnk28" data-source-line="120" data-link-type="composition"><path d="M796.69,543.609 C882.78,543.609 976.5,543.609 1037.96,543.609" style="stroke:#181818;stroke-width:1;" fill="none" id="WasteRecord-backto-WasteRecordId" codeLine="120"/><polygon points="784.69,543.609,790.69,547.609,796.69,543.609,790.69,539.609,784.69,543.609" fill="#181818" style="stroke:#181818;stroke-width:1;stroke-linejoin:miter;stroke-miterlimit:10;"/><text x="1022.931" y="558.282" fill="#000" font-size="13">1</text></g><!--reverse link WasteRecord to ProductionRecordId--><g class="link" data-entity-1="ent0006" data-entity-2="ent0011" id="lnk29" data-source-line="121" data-link-type="composition"><path d="M796.69,416.609 C876.57,416.609 961.34,416.609 1023.99,416.609" style="stroke:#181818;stroke-width:1;" fill="none" id="WasteRecord-backto-ProductionRecordId" codeLine="121"/><polygon points="784.69,416.609,790.69,420.609,796.69,416.609,790.69,412.609,784.69,416.609" fill="#181818" style="stroke:#181818;stroke-width:1;stroke-linejoin:miter;stroke-miterlimit:10;"/><text x="818.34" y="431.104" fill="#000" font-size="13" textLength="85.268">local reference</text><text x="1008.67" y="433.641" fill="#000" font-size="13">1</text></g><!--reverse link WasteRecord to Weight--><g class="link" data-entity-1="ent0006" data-entity-2="ent0002" id="lnk30" data-source-line="122" data-link-type="composition"><path d="M796.7,590.609 C819.03,590.609 823,590.609 823,590.609 C823,590.609 823,939.609 823,939.609 C823,939.609 930.18,939.609 1008.47,939.609" style="stroke:#181818;stroke-width:1;" fill="none" id="WasteRecord-backto-Weight" codeLine="122"/><polygon points="784.7,590.609,790.7,594.609,796.7,590.609,790.7,586.609,784.7,590.609" fill="#181818" style="stroke:#181818;stroke-width:1;stroke-linejoin:miter;stroke-miterlimit:10;"/><text x="993.19" y="953.902" fill="#000" font-size="13">1</text></g><!--reverse link WasteRecord to Percentage--><g class="link" data-entity-1="ent0006" data-entity-2="ent0013" id="lnk31" data-source-line="123" data-link-type="aggregation"><path d="M796.67,486.279 C1014.5,486.279 1423.01,486.279 1637.75,486.279" style="stroke:#181818;stroke-width:1;" fill="none" id="WasteRecord-backto-Percentage" codeLine="123"/><polygon points="784.67,486.279,790.67,490.279,796.67,486.279,790.67,482.279,784.67,486.279" fill="none" style="stroke:#181818;stroke-width:1;stroke-linejoin:miter;stroke-miterlimit:10;"/><text x="1608.457" y="500.751" fill="#000" font-size="13" textLength="21.684">0..1</text></g><!--reverse link QualityDeviation to QualityDeviationId--><g class="link" data-entity-1="ent0007" data-entity-2="ent0010" id="lnk32" data-source-line="124" data-link-type="composition"><path d="M1293.03,733.609 C1336.07,733.609 1366.62,733.609 1399.37,733.609" style="stroke:#181818;stroke-width:1;" fill="none" id="QualityDeviation-backto-QualityDeviationId" codeLine="124"/><polygon points="1281.03,733.609,1287.03,737.609,1293.03,733.609,1287.03,729.609,1281.03,733.609" fill="#181818" style="stroke:#181818;stroke-width:1;stroke-linejoin:miter;stroke-miterlimit:10;"/><text x="1384.257" y="748.132" fill="#000" font-size="13">1</text></g><!--reverse link QualityDeviation to DeviationSource--><g class="link" data-entity-1="ent0007" data-entity-2="ent0015" id="lnk33" data-source-line="125" data-link-type="composition"><path d="M1293.03,638.609 C1313.67,638.609 1322.19,638.609 1341.58,638.609" style="stroke:#181818;stroke-width:1;" fill="none" id="QualityDeviation-backto-DeviationSource" codeLine="125"/><polygon points="1281.03,638.609,1287.03,642.609,1293.03,638.609,1287.03,634.609,1281.03,638.609" fill="#181818" style="stroke:#181818;stroke-width:1;stroke-linejoin:miter;stroke-miterlimit:10;"/><text x="1326.799" y="654.232" fill="#000" font-size="13">1</text></g><!--reverse link QualityDeviation to Percentage--><g class="link" data-entity-1="ent0007" data-entity-2="ent0013" id="lnk34" data-source-line="126" data-link-type="composition"><path d="M1262,604.429 C1262,554.679 1262,515.109 1262,515.109 C1262,515.109 1487.12,515.109 1637.93,515.109" style="stroke:#181818;stroke-width:1;" fill="none" id="QualityDeviation-backto-Percentage" codeLine="126"/><polygon points="1262,616.429,1266,610.429,1262,604.429,1258,610.429,1262,616.429" fill="#181818" style="stroke:#181818;stroke-width:1;stroke-linejoin:miter;stroke-miterlimit:10;"/><text x="1622.612" y="531.39" fill="#000" font-size="13">1</text></g><!--reverse link QualityDeviation to QualityRange--><g class="link" data-entity-1="ent0007" data-entity-2="ent0014" id="lnk35" data-source-line="127" data-link-type="composition"><path d="M1222,604.389 C1222,474.759 1222,264.779 1222,264.779 C1222,264.779 1281.38,264.779 1340.75,264.779" style="stroke:#181818;stroke-width:1;" fill="none" id="QualityDeviation-backto-QualityRange" codeLine="127"/><polygon points="1222,616.389,1226,610.389,1222,604.389,1218,610.389,1222,616.389" fill="#181818" style="stroke:#181818;stroke-width:1;stroke-linejoin:miter;stroke-miterlimit:10;"/><text x="1325.941" y="280.105" fill="#000" font-size="13">1</text></g><!--link QualityDeviation to QualityIndicator--><g class="link" data-entity-1="ent0007" data-entity-2="ent0016" id="lnk36" data-source-line="128" data-link-type="dependency"><path d="M1242,616.469 C1242,539.119 1242,440.609 1242,440.609 C1242,440.609 1288.24,440.609 1340.97,440.609" style="stroke:#181818;stroke-width:1;" fill="none" id="QualityDeviation-to-QualityIndicator" codeLine="128"/><polygon points="1345.97,440.609,1336.97,436.609,1340.97,440.609,1336.97,444.609,1345.97,440.609" fill="#181818" style="stroke:#181818;stroke-width:1;stroke-linejoin:miter;stroke-miterlimit:10;"/><text x="1330.732" y="458.141" fill="#000" font-size="13">1</text></g><!--link DeviationSource to DeviationSourceType--><g class="link" data-entity-1="ent0015" data-entity-2="ent0017" id="lnk37" data-source-line="129" data-link-type="dependency"><path d="M1577.26,613.609 C1612.41,613.609 1645.31,613.609 1678.18,613.609" style="stroke:#181818;stroke-width:1;" fill="none" id="DeviationSource-to-DeviationSourceType" codeLine="129"/><polygon points="1683.18,613.609,1674.18,609.609,1678.18,613.609,1674.18,617.609,1683.18,613.609" fill="#181818" style="stroke:#181818;stroke-width:1;stroke-linejoin:miter;stroke-miterlimit:10;"/><text x="1668.326" y="627.81" fill="#000" font-size="13">1</text></g><!--link Weight to MeasurementUnit--><g class="link" data-entity-1="ent0002" data-entity-2="ent0003" id="lnk38" data-source-line="130" data-link-type="dependency"><path d="M1169.85,939.609 C1239.69,939.609 1333.92,939.609 1396.22,939.609" style="stroke:#181818;stroke-width:1;" fill="none" id="Weight-to-MeasurementUnit" codeLine="130"/><polygon points="1401.22,939.609,1392.22,935.609,1396.22,939.609,1392.22,943.609,1401.22,939.609" fill="#181818" style="stroke:#181818;stroke-width:1;stroke-linejoin:miter;stroke-miterlimit:10;"/><text x="1386.288" y="954.157" fill="#000" font-size="13">1</text></g><!--link QualityAssessmentRepository to QualityAssessment--><g class="link" data-entity-1="ent0018" data-entity-2="ent0005" id="lnk39" data-source-line="131" data-link-type="dependency"><path d="M396.09,257.609 C415.81,257.609 430.89,257.609 450.65,257.609" style="stroke:#181818;stroke-width:1;stroke-dasharray:7,7;" fill="none" id="QualityAssessmentRepository-to-QualityAssessment" codeLine="131"/><polygon points="455.65,257.609,446.65,253.609,450.65,257.609,446.65,261.609,455.65,257.609" fill="#181818" style="stroke:#181818;stroke-width:1;stroke-linejoin:miter;stroke-miterlimit:10;"/><text x="380.87" y="272.104" fill="#000" font-size="13" textLength="44.789">persists</text></g><!--link WasteRecordRepository to WasteRecord--><g class="link" data-entity-1="ent0019" data-entity-2="ent0006" id="lnk40" data-source-line="132" data-link-type="dependency"><path d="M361.11,499.609 C408.94,499.609 456.49,499.609 503.33,499.609" style="stroke:#181818;stroke-width:1;stroke-dasharray:7,7;" fill="none" id="WasteRecordRepository-to-WasteRecord" codeLine="132"/><polygon points="508.33,499.609,499.33,495.609,503.33,499.609,499.33,503.609,508.33,499.609" fill="#181818" style="stroke:#181818;stroke-width:1;stroke-linejoin:miter;stroke-miterlimit:10;"/><text x="389.72" y="514.104" fill="#000" font-size="13" textLength="44.789">persists</text></g><!--link QualityDeviationRepository to QualityDeviation--><g class="link" data-entity-1="ent0020" data-entity-2="ent0007" id="lnk41" data-source-line="133" data-link-type="dependency"><path d="M815.68,707.609 C842.16,707.609 864.68,707.609 891.63,707.609" style="stroke:#181818;stroke-width:1;stroke-dasharray:7,7;" fill="none" id="QualityDeviationRepository-to-QualityDeviation" codeLine="133"/><polygon points="896.63,707.609,887.63,703.609,891.63,707.609,887.63,711.609,896.63,707.609" fill="#181818" style="stroke:#181818;stroke-width:1;stroke-linejoin:miter;stroke-miterlimit:10;"/><text x="811.16" y="722.104" fill="#000" font-size="13" textLength="44.789">persists</text></g><?plantuml-src dLVVRo8v37xdhuXwBx0jQ6_lvLHLL5EOTb5RO87TLUy5fHC3kHqIBibqovtsVp_FxmoJQMbVaCR-R7-n4ziORa8WNo8QShCdL33om25aP225KJ8aLp8I3D9lU3QaImOXrPeCELqhkcs5i3B4IABuUcC8ume2mwLeRJW34d0LXD3IFxZOKKIJ8BRrZ57yCJ8m2gIOyt-1VBGWUaEP_Cd5cgneg6tZa0im-nqGgSn6MeeT3NxGDSpD7eyI4w1YZM5RcPoSJ9LaKSAhcvzqlg4AZtKBIa1uGdwxlhx-D1YG_rea9Kc-GtAYYujlD8o0J1x_HiVzVe8WfFkKICy9Wu1lQPWA8y4Dokw1waZ15eJvYf94TyhrL6fk-1EqEuXvb3BC5MCfnh2cXxfVBVm14MqF7I8f7yMWQ7oaWjFjw6voC_FkauzxVp4R3PQBoJZnzClAnj75nhJutlKVrtzQQScCFQr1wvWGal7MQnNp1pAJqieHPtYOci68fTfTKPGP15AnKOoUreGfU5jcG2FiZcjpaNcsajDFmJI91SoBYp54NWk-XSbgfI6jHRURPbub8IpxjXMcf6u1EgdXXcgy5PnDGGKenQpgMk6oMqIrWVGehoNAWhuhHVz4L9YuhkVPtKt5ZrH3TfTpnMNclM0VUoq-CcsQd6EJsCwZdv4ou1afdMIP2sWOH25wA-CbcQk6jnAOrM08JpovxKTUjmAVPqVB22F4HyaryqIIcGh60sgaAZsCSb6Aa8yQr1EmRzcxBmcdUdZUONy0DiFU0wMNv3D5C309uhM4OkF4JAxsxPJo6Id8dP4AYpDI2Tfn9iv-Twysivk8iyIBu_g-nxnUZBVxg5_tutqS4h5USgEJrw_2qtkl0BRwIMGq5jYteTNMKPoxV9rlcK4OumhCJm3n5oZf2JOHy1cxEWuxTnoRPMEaBHTyYuEeVkWjVNPhJd6u6yg5RjVpvIHoy30RkQJF8cc5MQ4BuIBU3cfFF9PcaP9fUbZLXd7w_VFapb_YG1sDbrD_Dl372-_6JrHNiycjFtRh7aR-tR0gB28xY3K4__BLknij7fRUVExFv_VeAkNapHV-SkOF9hDXViCvpcgreW7Kd_mCTl7E8TKUmvGVHPHJJN7beEKiTuphh76ly5rSxKUitJJKEoxnPNRwagFLKOvZbuwGwdnqSghqgavLKETns9gE8yEACLIVD2ybokg07OVqCj_HwjlLXswNdFn-uboZcj5Jr-8GIfo-E99Ne43Wv6iox_K-d3WwPilHH8juvTj_0LLfY0vSjzktSMNRhVIenDkdIanxoyg3LTSf5-Ae93bTf-kLhPAnwcElvyn5kRmSPCBUKXgnXmjB8_0DWIibA56D1JZipJdGrMcpPJE77FuPUgb9zNfznn-CSuARgiQDNxVStICsiujX6RpmpArWG-jPvwR_0m00?></g></svg>