<svg xmlns="http://www.w3.org/2000/svg" xmlns:xlink="http://www.w3.org/1999/xlink" version="1.1" data-diagram-type="CLASS" style="width:1575px;height:939px;background:#FFFFFF;" width="1575px" height="939px" viewBox="0 0 1575 939" zoomAndPan="magnify" preserveAspectRatio="none" contentStyleType="text/css"><?plantuml 1.2026.8?><defs/><g font-family="sans-serif" lengthAdjust="spacing"><g class="title" data-source-line="1"><text x="588.362" y="24.533" fill="#000" font-size="14" textLength="391.275" font-weight="700">Reporting and Analytics Bounded Context - Class Diagram</text></g><!--cluster Reporting and Analytics Bounded Context--><g class="cluster" data-qualified-name="Reporting and Analytics Bounded Context" id="ent0001" data-source-line="9"><rect x="7" y="45.609" width="1554" height="880" fill="#EAF3F8" style="stroke:#000;stroke-width:1.5;" rx="2.5" ry="2.5"/><text x="643.217" y="62.143" fill="#000" font-size="14" textLength="281.565" font-weight="700">Reporting and Analytics Bounded Context</text></g><!--class ReportingQueryService--><g class="entity" data-qualified-name="Reporting and Analytics Bounded Context.ReportingQueryService" id="ent0002" data-source-line="10"><rect x="23" y="322.109" width="506.546" height="129.141" fill="#F1F1F1" style="stroke:#181818;stroke-width:0.5;" rx="2.5" ry="2.5"/><text x="231.586" y="339.566" fill="#000" font-size="12" textLength="89.373" font-style="italic">«Query Service»</text><text x="203.518" y="356.736" fill="#000" font-size="14" textLength="145.51">ReportingQueryService</text><line x1="24" y1="364.813" x2="528.546" y2="364.813" style="stroke:#181818;stroke-width:0.5;"/><line x1="24" y1="372.813" x2="528.546" y2="372.813" style="stroke:#181818;stroke-width:0.5;"/><text x="29" y="391.346" fill="#000" font-size="14" textLength="434.595">+getOperationalSummary(period : DateRange) : OperationalSummary</text><text x="29" y="408.955" fill="#000" font-size="14" textLength="423.753">+generateProductionReport(period : DateRange) : ProductionReport</text><text x="29" y="426.564" fill="#000" font-size="14" textLength="450.222">+generateMaintenanceReport(period : DateRange) : MaintenanceReport</text><text x="29" y="444.174" fill="#000" font-size="14" textLength="494.546">+getOperationalTrend(indicator : string, period : DateRange) : OperationalTrend</text></g><!--class ReportingProjectionUpdater--><g class="entity" data-qualified-name="Reporting and Analytics Bounded Context.ReportingProjectionUpdater" id="ent0003" data-source-line="17"><rect x="145" y="724.609" width="262.988" height="76.313" fill="#F1F1F1" style="stroke:#181818;stroke-width:0.5;" rx="2.5" ry="2.5"/><text x="231.799" y="742.066" fill="#000" font-size="12" textLength="89.391" font-style="italic">«Event Handler»</text><text x="190.112" y="759.236" fill="#000" font-size="14" textLength="172.765">ReportingProjectionUpdater</text><line x1="146" y1="767.313" x2="406.988" y2="767.313" style="stroke:#181818;stroke-width:0.5;"/><line x1="146" y1="775.313" x2="406.988" y2="775.313" style="stroke:#181818;stroke-width:0.5;"/><text x="151" y="793.846" fill="#000" font-size="14" textLength="250.988">+handle(event : PublishedDomainEvent)</text></g><!--class ReportingProjectionStore--><g class="entity" data-qualified-name="Reporting and Analytics Bounded Context.ReportingProjectionStore" id="ent0004" data-source-line="21"><rect x="590" y="616.109" width="408.491" height="129.141" fill="#F1F1F1" style="stroke:#181818;stroke-width:0.5;" rx="2.5" ry="2.5"/><text x="744.883" y="633.566" fill="#000" font-size="12" textLength="98.725" font-style="italic">«Projection Store»</text><text x="716.036" y="650.736" fill="#000" font-size="14" textLength="156.42" font-style="italic">ReportingProjectionStore</text><line x1="591" y1="658.813" x2="997.491" y2="658.813" style="stroke:#181818;stroke-width:0.5;"/><line x1="591" y1="666.813" x2="997.491" y2="666.813" style="stroke:#181818;stroke-width:0.5;"/><text x="596" y="685.346" fill="#000" font-size="14" textLength="208.879">+saveMetric(metric : MetricValue)</text><text x="596" y="702.955" fill="#000" font-size="14" textLength="330.319">+findMetrics(period : DateRange) : List&lt;MetricValue></text><text x="596" y="720.564" fill="#000" font-size="14" textLength="383.257">+findProductionRows(period : DateRange) : List&lt;ReportRow></text><text x="596" y="738.174" fill="#000" font-size="14" textLength="396.491">+findMaintenanceRows(period : DateRange) : List&lt;ReportRow></text></g><!--class PublishedDomainEvent--><g class="entity" data-qualified-name="Reporting and Analytics Bounded Context.PublishedDomainEvent" id="ent0005" data-source-line="28"><rect x="695" y="780.109" width="197.568" height="129.141" fill="#F1F1F1" style="stroke:#181818;stroke-width:0.5;" rx="2.5" ry="2.5"/><text x="732.396" y="797.566" fill="#000" font-size="12" textLength="122.777" font-style="italic">«Published Language»</text><text x="721.019" y="814.736" fill="#000" font-size="14" textLength="145.53">PublishedDomainEvent</text><line x1="696" y1="822.813" x2="891.568" y2="822.813" style="stroke:#181818;stroke-width:0.5;"/><text x="701" y="841.346" fill="#000" font-size="14" textLength="125.672">+eventName : string</text><text x="701" y="858.955" fill="#000" font-size="14" textLength="177.064">+aggregateReference : Guid</text><text x="701" y="876.564" fill="#000" font-size="14" textLength="185.568">+occurredAt : DateTimeOffset</text><text x="701" y="894.174" fill="#000" font-size="14" textLength="131.141">+payloadVersion : int</text><line x1="696" y1="901.25" x2="891.568" y2="901.25" style="stroke:#181818;stroke-width:0.5;"/></g><!--class DateRange--><g class="entity" data-qualified-name="Reporting and Analytics Bounded Context.DateRange" id="ent0006" data-source-line="35"><rect x="1109.5" y="192.609" width="118.6" height="111.531" fill="#F1F1F1" style="stroke:#181818;stroke-width:0.5;" rx="2.5" ry="2.5"/><text x="1127.772" y="210.066" fill="#000" font-size="12" textLength="82.055" font-style="italic">«Value Object»</text><text x="1133.386" y="227.236" fill="#000" font-size="14" textLength="70.827">DateRange</text><line x1="1110.5" y1="235.313" x2="1227.1" y2="235.313" style="stroke:#181818;stroke-width:0.5;"/><text x="1115.5" y="253.846" fill="#000" font-size="14" textLength="106.6">-start : LocalDate</text><text x="1115.5" y="271.455" fill="#000" font-size="14" textLength="102.73">-end : LocalDate</text><line x1="1110.5" y1="278.531" x2="1227.1" y2="278.531" style="stroke:#181818;stroke-width:0.5;"/><text x="1115.5" y="297.064" fill="#000" font-size="14" textLength="96.879">+isValid() : bool</text></g><!--class MetricValue--><g class="entity" data-qualified-name="Reporting and Analytics Bounded Context.MetricValue" id="ent0007" data-source-line="40"><rect x="1340" y="202.109" width="205.354" height="129.141" fill="#F1F1F1" style="stroke:#181818;stroke-width:0.5;" rx="2.5" ry="2.5"/><text x="1401.65" y="219.566" fill="#000" font-size="12" textLength="82.055" font-style="italic">«Value Object»</text><text x="1405.719" y="236.736" fill="#000" font-size="14" textLength="73.917">MetricValue</text><line x1="1341" y1="244.813" x2="1544.354" y2="244.813" style="stroke:#181818;stroke-width:0.5;"/><text x="1346" y="263.346" fill="#000" font-size="14" textLength="89.1">+name : string</text><text x="1346" y="280.955" fill="#000" font-size="14" textLength="101.555">+value : decimal</text><text x="1346" y="298.564" fill="#000" font-size="14" textLength="76.651">+unit : string</text><text x="1346" y="316.174" fill="#000" font-size="14" textLength="193.354">+measuredAt : DateTimeOffset</text><line x1="1341" y1="323.25" x2="1544.354" y2="323.25" style="stroke:#181818;stroke-width:0.5;"/></g><!--class ReportRow--><g class="entity" data-qualified-name="Reporting and Analytics Bounded Context.ReportRow" id="ent0008" data-source-line="46"><rect x="1058" y="339.609" width="222.492" height="93.922" fill="#F1F1F1" style="stroke:#181818;stroke-width:0.5;" rx="2.5" ry="2.5"/><text x="1128.219" y="357.066" fill="#000" font-size="12" textLength="82.055" font-style="italic">«Value Object»</text><text x="1134.232" y="374.236" fill="#000" font-size="14" textLength="70.027">ReportRow</text><line x1="1059" y1="382.313" x2="1279.492" y2="382.313" style="stroke:#181818;stroke-width:0.5;"/><text x="1064" y="400.846" fill="#000" font-size="14" textLength="210.492">+dimensions : Map&lt;string, string></text><text x="1064" y="418.455" fill="#000" font-size="14" textLength="177.01">+metrics : List&lt;MetricValue></text><line x1="1059" y1="425.531" x2="1279.492" y2="425.531" style="stroke:#181818;stroke-width:0.5;"/></g><!--class TrendPoint--><g class="entity" data-qualified-name="Reporting and Analytics Bounded Context.TrendPoint" id="ent0009" data-source-line="50"><rect x="1070" y="477.609" width="198.354" height="93.922" fill="#F1F1F1" style="stroke:#181818;stroke-width:0.5;" rx="2.5" ry="2.5"/><text x="1128.15" y="495.066" fill="#000" font-size="12" textLength="82.055" font-style="italic">«Value Object»</text><text x="1134.936" y="512.236" fill="#000" font-size="14" textLength="68.482">TrendPoint</text><line x1="1071" y1="520.313" x2="1267.354" y2="520.313" style="stroke:#181818;stroke-width:0.5;"/><text x="1076" y="538.846" fill="#000" font-size="14" textLength="186.354">+recordedAt : DateTimeOffset</text><text x="1076" y="556.455" fill="#000" font-size="14" textLength="101.555">+value : decimal</text><line x1="1071" y1="563.531" x2="1267.354" y2="563.531" style="stroke:#181818;stroke-width:0.5;"/></g><!--class OperationalSummary--><g class="entity" data-qualified-name="Reporting and Analytics Bounded Context.OperationalSummary" id="ent0010" data-source-line="55"><rect x="699.5" y="81.609" width="189.01" height="93.922" fill="#F1F1F1" style="stroke:#181818;stroke-width:0.5;" rx="2.5" ry="2.5"/><text x="754.979" y="99.066" fill="#000" font-size="12" textLength="78.053" font-style="italic">«Read Model»</text><text x="727.867" y="116.236" fill="#000" font-size="14" textLength="132.275">OperationalSummary</text><line x1="700.5" y1="124.313" x2="887.51" y2="124.313" style="stroke:#181818;stroke-width:0.5;"/><text x="705.5" y="142.846" fill="#000" font-size="14" textLength="129.589">+period : DateRange</text><text x="705.5" y="160.455" fill="#000" font-size="14" textLength="177.01">+metrics : List&lt;MetricValue></text><line x1="700.5" y1="167.531" x2="887.51" y2="167.531" style="stroke:#181818;stroke-width:0.5;"/></g><!--class ProductionReport--><g class="entity" data-qualified-name="Reporting and Analytics Bounded Context.ProductionReport" id="ent0011" data-source-line="59"><rect x="709" y="210.609" width="169.568" height="93.922" fill="#F1F1F1" style="stroke:#181818;stroke-width:0.5;" rx="2.5" ry="2.5"/><text x="754.758" y="228.066" fill="#000" font-size="12" textLength="78.053" font-style="italic">«Read Model»</text><text x="739.309" y="245.236" fill="#000" font-size="14" textLength="108.951">ProductionReport</text><line x1="710" y1="253.313" x2="877.568" y2="253.313" style="stroke:#181818;stroke-width:0.5;"/><text x="715" y="271.846" fill="#000" font-size="14" textLength="129.589">+period : DateRange</text><text x="715" y="289.455" fill="#000" font-size="14" textLength="157.568">+rows : List&lt;ReportRow></text><line x1="710" y1="296.531" x2="877.568" y2="296.531" style="stroke:#181818;stroke-width:0.5;"/></g><!--class MaintenanceReport--><g class="entity" data-qualified-name="Reporting and Analytics Bounded Context.MaintenanceReport" id="ent0012" data-source-line="63"><rect x="709" y="339.609" width="169.568" height="93.922" fill="#F1F1F1" style="stroke:#181818;stroke-width:0.5;" rx="2.5" ry="2.5"/><text x="754.758" y="357.066" fill="#000" font-size="12" textLength="78.053" font-style="italic">«Read Model»</text><text x="732.691" y="374.236" fill="#000" font-size="14" textLength="122.186">MaintenanceReport</text><line x1="710" y1="382.313" x2="877.568" y2="382.313" style="stroke:#181818;stroke-width:0.5;"/><text x="715" y="400.846" fill="#000" font-size="14" textLength="129.589">+period : DateRange</text><text x="715" y="418.455" fill="#000" font-size="14" textLength="157.568">+rows : List&lt;ReportRow></text><line x1="710" y1="425.531" x2="877.568" y2="425.531" style="stroke:#181818;stroke-width:0.5;"/></g><!--class OperationalTrend--><g class="entity" data-qualified-name="Reporting and Analytics Bounded Context.OperationalTrend" id="ent0013" data-source-line="67"><rect x="706" y="468.609" width="175.823" height="111.531" fill="#F1F1F1" style="stroke:#181818;stroke-width:0.5;" rx="2.5" ry="2.5"/><text x="754.885" y="486.066" fill="#000" font-size="12" textLength="78.053" font-style="italic">«Read Model»</text><text x="739.436" y="503.236" fill="#000" font-size="14" textLength="108.951">OperationalTrend</text><line x1="707" y1="511.313" x2="880.823" y2="511.313" style="stroke:#181818;stroke-width:0.5;"/><text x="712" y="529.846" fill="#000" font-size="14" textLength="106.996">+indicator : string</text><text x="712" y="547.455" fill="#000" font-size="14" textLength="129.589">+period : DateRange</text><text x="712" y="565.064" fill="#000" font-size="14" textLength="163.823">+points : List&lt;TrendPoint></text><line x1="707" y1="572.141" x2="880.823" y2="572.141" style="stroke:#181818;stroke-width:0.5;"/></g><!--link ReportingProjectionUpdater to PublishedDomainEvent--><g class="link" data-entity-1="ent0003" data-entity-2="ent0005" id="lnk14" data-source-line="74" data-link-type="dependency"><path d="M408.09,790.359 C497.33,790.359 608.42,790.359 689.87,790.359" style="stroke:#181818;stroke-width:1;stroke-dasharray:7,7;" fill="none" id="ReportingProjectionUpdater-to-PublishedDomainEvent" codeLine="74"/><polygon points="694.87,790.359,685.87,786.359,689.87,790.359,685.87,794.359,694.87,790.359" fill="#181818" style="stroke:#181818;stroke-width:1;stroke-linejoin:miter;stroke-miterlimit:10;"/><text x="491.48" y="804.854" fill="#000" font-size="13" textLength="59.249">consumes</text></g><!--link ReportingProjectionUpdater to ReportingProjectionStore--><g class="link" data-entity-1="ent0003" data-entity-2="ent0004" id="lnk15" data-source-line="75" data-link-type="dependency"><path d="M408.09,734.859 C463.19,734.859 523.53,734.859 584.63,734.859" style="stroke:#181818;stroke-width:1;stroke-dasharray:7,7;" fill="none" id="ReportingProjectionUpdater-to-ReportingProjectionStore" codeLine="75"/><polygon points="589.63,734.859,580.63,730.859,584.63,734.859,580.63,738.859,589.63,734.859" fill="#181818" style="stroke:#181818;stroke-width:1;stroke-linejoin:miter;stroke-miterlimit:10;"/><text x="451.86" y="749.354" fill="#000" font-size="13" textLength="46.262">updates</text></g><!--link ReportingQueryService to ReportingProjectionStore--><g class="link" data-entity-1="ent0002" data-entity-2="ent0004" id="lnk16" data-source-line="76" data-link-type="dependency"><path d="M530.17,445.279 C594.12,445.279 645,445.279 645,445.279 C645,445.279 645,541.319 645,610.989" style="stroke:#181818;stroke-width:1;stroke-dasharray:7,7;" fill="none" id="ReportingQueryService-to-ReportingProjectionStore" codeLine="76"/><polygon points="645,615.989,649,606.989,645,610.989,641,606.989,645,615.989" fill="#181818" style="stroke:#181818;stroke-width:1;stroke-linejoin:miter;stroke-miterlimit:10;"/><text x="612" y="487.714" fill="#000" font-size="13" textLength="32.519">reads</text></g><!--link ReportingQueryService to OperationalSummary--><g class="link" data-entity-1="ent0002" data-entity-2="ent0010" id="lnk17" data-source-line="77" data-link-type="dependency"><path d="M277,321.839 C277,245.409 277,128.609 277,128.609 C277,128.609 545.29,128.609 694.47,128.609" style="stroke:#181818;stroke-width:1;stroke-dasharray:7,7;" fill="none" id="ReportingQueryService-to-OperationalSummary" codeLine="77"/><polygon points="699.47,128.609,690.47,124.609,694.47,128.609,690.47,132.609,699.47,128.609" fill="#181818" style="stroke:#181818;stroke-width:1;stroke-linejoin:miter;stroke-miterlimit:10;"/><text x="350.62" y="143.104" fill="#000" font-size="13" textLength="40.46">returns</text></g><!--link ReportingQueryService to ProductionReport--><g class="link" data-entity-1="ent0002" data-entity-2="ent0011" id="lnk18" data-source-line="78" data-link-type="dependency"><path d="M530.32,328.109 C661.32,328.109 794,328.109 794,328.109 C794,328.109 794,322.569 794,309.629" style="stroke:#181818;stroke-width:1;stroke-dasharray:7,7;" fill="none" id="ReportingQueryService-to-ProductionReport" codeLine="78"/><polygon points="794,304.629,790,313.629,794,309.629,798,313.629,794,304.629" fill="#181818" style="stroke:#181818;stroke-width:1;stroke-linejoin:miter;stroke-miterlimit:10;"/><text x="632.9" y="342.604" fill="#000" font-size="13" textLength="40.46">returns</text></g><!--link ReportingQueryService to MaintenanceReport--><g class="link" data-entity-1="ent0002" data-entity-2="ent0012" id="lnk19" data-source-line="79" data-link-type="dependency"><path d="M530.32,386.609 C594.8,386.609 654.68,386.609 703.95,386.609" style="stroke:#181818;stroke-width:1;stroke-dasharray:7,7;" fill="none" id="ReportingQueryService-to-MaintenanceReport" codeLine="79"/><polygon points="708.95,386.609,699.95,382.609,703.95,386.609,699.95,390.609,708.95,386.609" fill="#181818" style="stroke:#181818;stroke-width:1;stroke-linejoin:miter;stroke-miterlimit:10;"/><text x="578.64" y="401.104" fill="#000" font-size="13" textLength="40.46">returns</text></g><!--link ReportingQueryService to OperationalTrend--><g class="link" data-entity-1="ent0002" data-entity-2="ent0013" id="lnk20" data-source-line="80" data-link-type="dependency"><path d="M530.32,439.439 C661.32,439.439 794,439.439 794,439.439 C794,439.439 794,447.439 794,463.279" style="stroke:#181818;stroke-width:1;stroke-dasharray:7,7;" fill="none" id="ReportingQueryService-to-OperationalTrend" codeLine="80"/><polygon points="794,468.279,798,459.279,794,463.279,790,459.279,794,468.279" fill="#181818" style="stroke:#181818;stroke-width:1;stroke-linejoin:miter;stroke-miterlimit:10;"/><text x="635.58" y="453.934" fill="#000" font-size="13" textLength="40.46">returns</text></g><!--reverse link OperationalSummary to DateRange--><g class="link" data-entity-1="ent0010" data-entity-2="ent0006" id="lnk21" data-source-line="81" data-link-type="composition"><path d="M794,187.669 C794,201.789 794,201.609 794,201.609 C794,201.609 1003.29,201.609 1109.17,201.609" style="stroke:#181818;stroke-width:1;" fill="none" id="OperationalSummary-backto-DateRange" codeLine="81"/><polygon points="794,175.669,790,181.669,794,187.669,798,181.669,794,175.669" fill="#181818" style="stroke:#181818;stroke-width:1;stroke-linejoin:miter;stroke-miterlimit:10;"/><text x="1094.096" y="210.16" fill="#000" font-size="13">1</text></g><!--reverse link OperationalSummary to MetricValue--><g class="link" data-entity-1="ent0010" data-entity-2="ent0007" id="lnk22" data-source-line="82" data-link-type="composition"><path d="M900.72,128.609 C1080.85,128.609 1443,128.609 1443,128.609 C1443,128.609 1443,166.139 1443,202.049" style="stroke:#181818;stroke-width:1;" fill="none" id="OperationalSummary-backto-MetricValue" codeLine="82"/><polygon points="888.72,128.609,894.72,132.609,900.72,128.609,894.72,124.609,888.72,128.609" fill="#181818" style="stroke:#181818;stroke-width:1;stroke-linejoin:miter;stroke-miterlimit:10;"/><text x="1422.969" y="191.167" fill="#000" font-size="13" textLength="19.513">0..*</text></g><!--reverse link ProductionReport to DateRange--><g class="link" data-entity-1="ent0011" data-entity-2="ent0006" id="lnk23" data-source-line="83" data-link-type="composition"><path d="M891.09,229.409 C961.32,229.409 1047.21,229.409 1109.34,229.409" style="stroke:#181818;stroke-width:1;" fill="none" id="ProductionReport-backto-DateRange" codeLine="83"/><polygon points="879.09,229.409,885.09,233.409,891.09,229.409,885.09,225.409,879.09,229.409" fill="#181818" style="stroke:#181818;stroke-width:1;stroke-linejoin:miter;stroke-miterlimit:10;"/><text x="1094.288" y="241.522" fill="#000" font-size="13">1</text></g><!--reverse link ProductionReport to ReportRow--><g class="link" data-entity-1="ent0011" data-entity-2="ent0008" id="lnk24" data-source-line="84" data-link-type="composition"><path d="M891.05,248.209 C976.62,248.209 1084,248.209 1084,248.209 C1084,248.209 1084,299.269 1084,339.369" style="stroke:#181818;stroke-width:1;" fill="none" id="ProductionReport-backto-ReportRow" codeLine="84"/><polygon points="879.05,248.209,885.05,252.209,891.05,248.209,885.05,244.209,879.05,248.209" fill="#181818" style="stroke:#181818;stroke-width:1;stroke-linejoin:miter;stroke-miterlimit:10;"/><text x="1051.122" y="328.783" fill="#000" font-size="13" textLength="19.513">0..*</text></g><!--reverse link MaintenanceReport to DateRange--><g class="link" data-entity-1="ent0012" data-entity-2="ent0006" id="lnk25" data-source-line="85" data-link-type="composition"><path d="M891.18,370.939 C916.2,370.939 925,370.939 925,370.939 C925,370.939 925,267.009 925,267.009 C925,267.009 1037.08,267.009 1109.31,267.009" style="stroke:#181818;stroke-width:1;" fill="none" id="MaintenanceReport-backto-DateRange" codeLine="85"/><polygon points="879.18,370.939,885.18,374.939,891.18,370.939,885.18,366.939,879.18,370.939" fill="#181818" style="stroke:#181818;stroke-width:1;stroke-linejoin:miter;stroke-miterlimit:10;"/><text x="1094.254" y="283.94" fill="#000" font-size="13">1</text></g><!--reverse link MaintenanceReport to ReportRow--><g class="link" data-entity-1="ent0012" data-entity-2="ent0008" id="lnk26" data-source-line="86" data-link-type="composition"><path d="M891.09,402.279 C944.04,402.279 1000.69,402.279 1057.9,402.279" style="stroke:#181818;stroke-width:1;" fill="none" id="MaintenanceReport-backto-ReportRow" codeLine="86"/><polygon points="879.09,402.279,885.09,406.279,891.09,402.279,885.09,398.279,879.09,402.279" fill="#181818" style="stroke:#181818;stroke-width:1;stroke-linejoin:miter;stroke-miterlimit:10;"/><text x="1030.421" y="417.454" fill="#000" font-size="13" textLength="19.513">0..*</text></g><!--reverse link OperationalTrend to DateRange--><g class="link" data-entity-1="ent0013" data-entity-2="ent0006" id="lnk27" data-source-line="87" data-link-type="composition"><path d="M894.43,473.109 C934.9,473.109 962,473.109 962,473.109 C962,473.109 962,285.809 962,285.809 C962,285.809 1048.25,285.809 1109.4,285.809" style="stroke:#181818;stroke-width:1;" fill="none" id="OperationalTrend-backto-DateRange" codeLine="87"/><polygon points="882.43,473.109,888.43,477.109,894.43,473.109,888.43,469.109,882.43,473.109" fill="#181818" style="stroke:#181818;stroke-width:1;stroke-linejoin:miter;stroke-miterlimit:10;"/><text x="1094.356" y="305.148" fill="#000" font-size="13">1</text></g><!--reverse link OperationalTrend to TrendPoint--><g class="link" data-entity-1="ent0013" data-entity-2="ent0009" id="lnk28" data-source-line="88" data-link-type="composition"><path d="M894.39,524.609 C950.69,524.609 1011.72,524.609 1069.97,524.609" style="stroke:#181818;stroke-width:1;" fill="none" id="OperationalTrend-backto-TrendPoint" codeLine="88"/><polygon points="882.39,524.609,888.39,528.609,894.39,524.609,888.39,520.609,882.39,524.609" fill="#181818" style="stroke:#181818;stroke-width:1;stroke-linejoin:miter;stroke-miterlimit:10;"/><text x="1042.328" y="538.759" fill="#000" font-size="13" textLength="19.513">0..*</text></g><!--reverse link ReportRow to MetricValue--><g class="link" data-entity-1="ent0008" data-entity-2="ent0007" id="lnk29" data-source-line="89" data-link-type="composition"><path d="M1255,327.369 C1255,319.119 1255,325.109 1255,325.109 C1255,325.109 1296.2,325.109 1339.97,325.109" style="stroke:#181818;stroke-width:1;" fill="none" id="ReportRow-backto-MetricValue" codeLine="89"/><polygon points="1255,339.369,1259,333.369,1255,327.369,1251,333.369,1255,339.369" fill="#181818" style="stroke:#181818;stroke-width:1;stroke-linejoin:miter;stroke-miterlimit:10;"/><text x="1312.399" y="343.704" fill="#000" font-size="13" textLength="19.513">0..*</text></g><?plantuml-src hLLDRzim3BtxLn3P9MsNeCCkGn04oFgn3MZNhkbwLoJ6qMfBXYItouR-zr5o4hjHxBR0JebbFZxoFOfsqcK8DrXeuwHAWIa1KyMobPFSmcTTAe42JhHo-Dl104uoPYsSIfOQbYSPBXmu3KQcImT26kHEQfKifK3Wql0C4tilLS4e6hZ7JfqpSbuw_CQrcia_2CUD4BjaGZ_wGXOiiqrm9XMwLO50XIvruqN1-3rBSUPMr8WlWAcKQ9FrEVHUsLmFtfrDpp-UVuA_2LIrrhhyAD6iPcWU94SOZyCZh9ydau00E4hHNHLecDU0PRCopvbPzUb4QW4ZE6KERwWwFA27E72JG_aNU6sqA8EQLH4jQNR3dYUvP99wKqnnxCmInUthvzQW4dsfXEJCQKCmIrQgz3sys660Kiwd99QMElXLZStFGX3UaBvd3wWSV2M_CZIrlijmqCVmbdelvvcqInIdEgS60kXWm-8RCWl6SH_JZEhtFjOd48vgAiiUy1AfFzxFmuzNAVovOrc91rNKWjIeJcsBiXVIkd43EAc13UlqOoU-we2Y6kYcPM-1DopOfvyNPNCC5vIcf3jKonAa_yvotBfVdRCqDPXwPbmWcSrzm9TIYkgrvhmq1iNKhGkybJbUBHOMrvDMi5MccRX3OxqP8s_VysAtRL65GKcucdlljhKDh6F6vx_Gd6K-l3gcoOiEZwIb75BqlKPphRF0jQ5gsDL6TgHY3Hv2u0W4Sfcph3eibNGxSJaoMxQAyRHpGyYsrY840PKNp8OxN8mt5xBwdMpume2s36FD5oxfjPPX2FOJqdhLHdJu66lGi31UUKHqWqp0fHQOrJJnBB-jazsb-4OQG_UfvUviHsHtOVv_YjtrsS8Gx-Dkvi8RlEMkFQ_8oQsEnJmSJlOlZH7GnzoMETgNuAtBU0Hb26jaUFRHVG5iI9ekw9xPyo1N6jK5YoRfDQ1uE5w3YlokGNkAFnmCeFUXrt2tBUXuE3piDNTQ4ZKL9ziVKgNQpciIDnfdQedPJHLrtzbW8wHALCznKg_DblQJVm00?></g></svg>